<svg xmlns="http://www.w3.org/2000/svg" width="820" height="500" viewBox="0 0 820 500">
<rect width="100%" height="100%" fill="white"/>
<text x="410.0" y="25" text-anchor="middle" font-family="Arial" font-size="17">v10 fast 2D tradeoff 451 nm band and Q(k)</text>
<line x1="75" y1="430" x2="740" y2="430" stroke="#111"/>
<line x1="75" y1="40" x2="75" y2="430" stroke="#111"/>
<line x1="740" y1="40" x2="740" y2="430" stroke="#111"/>
<polyline fill="none" stroke="#1f77b4" stroke-width="2" points="75.00,106.99 170.00,107.02 265.00,107.20 360.00,109.26 455.00,127.46 550.00,363.01 645.00,171.47 740.00,253.71"/>
<polyline fill="none" stroke="#d62728" stroke-width="2" points="75.00,179.55 170.00,179.96 265.00,183.19 360.00,214.83 455.00,347.40 550.00,122.60 645.00,125.84 740.00,312.17"/>
<text x="75.00" y="450" text-anchor="middle" font-family="Arial" font-size="10">0</text>
<text x="170.00" y="450" text-anchor="middle" font-family="Arial" font-size="10">0.002</text>
<text x="265.00" y="450" text-anchor="middle" font-family="Arial" font-size="10">0.006</text>
<text x="360.00" y="450" text-anchor="middle" font-family="Arial" font-size="10">0.02</text>
<text x="455.00" y="450" text-anchor="middle" font-family="Arial" font-size="10">0.06</text>
<text x="550.00" y="450" text-anchor="middle" font-family="Arial" font-size="10">0.15</text>
<text x="645.00" y="450" text-anchor="middle" font-family="Arial" font-size="10">0.3</text>
<text x="740.00" y="450" text-anchor="middle" font-family="Arial" font-size="10">0.5</text>
</svg>